<svg width="24" height="30" viewBox="0 0 24 30" fill="none" xmlns="http://www.w3.org/2000/svg">
<path d="M13.0827 1.12955C12.8155 1.15558 12.4962 1.27183 12.2724 1.42452C11.9948 1.61712 11.731 1.96067 11.6217 2.27299C11.5263 2.55061 11.5315 2.32157 11.5263 5.79179L11.5211 8.98959L11.4551 9.02776C11.2938 9.12146 10.8652 9.41816 10.6934 9.55176C9.35913 10.6084 8.46555 12.0972 8.16538 13.7681C8.05953 14.3476 8.06127 14.3077 8.05606 16.4696L8.04912 18.4615H7.89817C7.47827 18.4598 6.97683 18.3314 6.51529 18.1058C5.36491 17.5437 4.6327 16.4089 4.58585 15.1128C4.52686 13.4696 5.64079 12.0052 7.24403 11.6252C7.45919 11.5732 7.63964 11.5471 7.8999 11.528L8.05086 11.5176V9.78947V8.05957L6.52396 5.41353C5.68244 3.95778 4.96757 2.72412 4.93114 2.67206C4.84612 2.5454 4.63096 2.33198 4.50256 2.24349C3.79638 1.7646 2.88544 1.84789 2.28857 2.44476C1.92246 2.81261 1.73854 3.32099 1.78886 3.82591C1.80794 4.01851 1.84091 4.14864 1.91378 4.32909C1.94502 4.40544 2.55404 5.47773 3.26717 6.70966C3.9803 7.94332 4.56503 8.96183 4.56676 8.97224C4.57023 8.98265 4.49042 9.04338 4.38978 9.10584C3.694 9.54656 3.11795 10.0584 2.62865 10.6709C0.650625 13.1486 0.607247 16.6449 2.52107 19.1851C2.93056 19.7299 3.51182 20.2886 4.08614 20.6912C5.15496 21.439 6.47191 21.8832 7.75069 21.9265L8.05086 21.937L8.05433 24.6715L8.05953 27.406L8.10638 27.5708C8.19661 27.8953 8.33542 28.1382 8.56098 28.3621C8.72235 28.5234 8.86115 28.6206 9.06243 28.7178C9.30708 28.834 9.43895 28.8618 9.77729 28.8618C10.0341 28.8635 10.0913 28.8583 10.2197 28.8236C10.7889 28.6674 11.2556 28.2319 11.4308 27.6923C11.5245 27.4077 11.5211 27.5188 11.5211 24.1371L11.5228 21.0035L11.6911 20.9028C12.0989 20.6599 12.4927 20.3511 12.897 19.9537C14.0613 18.8155 14.7432 17.4239 14.9496 15.7634C14.9774 15.5483 14.9809 15.2967 14.9861 13.52L14.993 11.5176L15.144 11.5298C15.7009 11.5697 16.0966 11.6738 16.5546 11.9046C18.3453 12.7999 19.0011 15.0451 17.9757 16.7663C17.6182 17.3667 17.1394 17.8074 16.5095 18.1145C16.0549 18.3366 15.5673 18.4598 15.144 18.4615H14.9913V20.2001L14.993 21.9404L16.5269 24.5951C17.3701 26.0544 18.1058 27.3123 18.1613 27.3869C18.38 27.6854 18.7148 27.9057 19.1122 28.0133C19.2544 28.0532 19.6414 28.0671 19.8114 28.0393C20.266 27.9665 20.7033 27.6906 20.9583 27.3141C21.3001 26.8091 21.3591 26.1567 21.1093 25.6206C21.078 25.5529 20.469 24.4876 19.7559 23.2522C18.7964 21.5917 18.465 21.0035 18.4823 20.9931C19.4557 20.4291 20.3337 19.5685 20.9219 18.6003C21.4494 17.7311 21.7686 16.7906 21.8901 15.7461C21.9335 15.3817 21.9335 14.5957 21.8901 14.2452C21.7513 13.1053 21.3938 12.1128 20.7918 11.1932C20.1185 10.1643 19.192 9.34355 18.0798 8.78658C17.2452 8.37015 16.2735 8.11162 15.4025 8.07692C15.2758 8.07172 15.1318 8.06304 15.0833 8.05784L14.9913 8.04916L14.9878 5.3129L14.9826 2.57663L14.9444 2.44303C14.8473 2.10295 14.6876 1.83227 14.4499 1.60324C14.0821 1.24928 13.5963 1.08271 13.0827 1.12955Z" fill="white"/>
</svg>
