<svg width="18" height="23" viewBox="0 0 18 23" fill="none" xmlns="http://www.w3.org/2000/svg">
<path d="M10.0301 0.865976C9.82519 0.885929 9.58043 0.975056 9.40883 1.09212C9.19599 1.23978 8.99379 1.50316 8.90998 1.74261C8.83682 1.95545 8.84081 1.77986 8.83682 4.44035L8.83283 6.892L8.78228 6.92127C8.65856 6.9931 8.32999 7.22057 8.1983 7.323C7.17534 8.13312 6.49026 9.27448 6.26013 10.5555C6.17898 10.9998 6.18031 10.9692 6.17632 12.6267L6.171 14.1538H6.05527C5.73335 14.1525 5.34891 14.0541 4.99506 13.8811C4.1131 13.4501 3.55174 12.5801 3.51582 11.5865C3.47059 10.3267 4.32461 9.20397 5.55376 8.91265C5.71871 8.87274 5.85706 8.85279 6.0566 8.83816L6.17233 8.83017V7.50525V6.17899L5.00171 4.15036C4.35654 3.03428 3.80848 2.08847 3.78054 2.04857C3.71536 1.95146 3.55041 1.78784 3.45197 1.72C2.91056 1.35285 2.21218 1.4167 1.75457 1.8743C1.47389 2.15632 1.33288 2.54608 1.37146 2.93318C1.38609 3.08084 1.41137 3.18061 1.46724 3.31895C1.49118 3.37749 1.9581 4.19958 2.50483 5.14406C3.05156 6.08986 3.49986 6.87072 3.50119 6.8787C3.50385 6.88668 3.44266 6.93324 3.3655 6.98113C2.83207 7.31901 2.39043 7.71144 2.0153 8.18101C0.498817 10.0806 0.46556 12.7611 1.93283 14.7085C2.24676 15.1262 2.6924 15.5546 3.13271 15.8632C3.95214 16.4365 4.9618 16.7771 5.9422 16.8103L6.17233 16.8183L6.17499 18.9148L6.17898 21.0113L6.2149 21.1376C6.28407 21.3864 6.39049 21.5726 6.56342 21.7442C6.68714 21.8679 6.79356 21.9424 6.94786 22.0169C7.13543 22.1061 7.23653 22.1273 7.49593 22.1273C7.6928 22.1287 7.7367 22.1247 7.83514 22.0981C8.27146 21.9784 8.6293 21.6445 8.76365 21.2308C8.83549 21.0126 8.83283 21.0977 8.83283 18.5051L8.83416 16.1026L8.96319 16.0255C9.2758 15.8393 9.57777 15.6025 9.88772 15.2978C10.7803 14.4252 11.3031 13.3583 11.4614 12.0853C11.4827 11.9203 11.4853 11.7275 11.4893 10.3653L11.4947 8.83017L11.6104 8.83949C12.0374 8.87008 12.3407 8.9499 12.6919 9.12682C14.0647 9.81323 14.5675 11.5346 13.7814 12.8542C13.5073 13.3144 13.1402 13.6523 12.6573 13.8878C12.3088 14.0581 11.935 14.1525 11.6104 14.1538H11.4933V15.4867L11.4947 16.821L12.6706 18.8563C13.3171 19.975 13.8811 20.9394 13.9237 20.9966C14.0913 21.2254 14.348 21.3944 14.6527 21.4768C14.7617 21.5074 15.0584 21.5181 15.1888 21.4968C15.5373 21.4409 15.8725 21.2294 16.0681 20.9408C16.3301 20.5537 16.3753 20.0535 16.1838 19.6424C16.1598 19.5906 15.6929 18.7738 15.1462 17.8266C14.4106 16.5536 14.1565 16.1026 14.1698 16.0947C14.9161 15.6623 15.5892 15.0025 16.0401 14.2603C16.4445 13.5938 16.6893 12.8728 16.7824 12.072C16.8157 11.7926 16.8157 11.19 16.7824 10.9213C16.676 10.0474 16.4019 9.28645 15.9403 8.58142C15.4242 7.79258 14.7139 7.16337 13.8612 6.73636C13.2213 6.4171 12.4764 6.2189 11.8086 6.19229C11.7115 6.1883 11.6011 6.18165 11.5638 6.17766L11.4933 6.17101L11.4907 4.07321L11.4867 1.9754L11.4574 1.87297C11.3829 1.61225 11.2605 1.40473 11.0783 1.22913C10.7963 0.957763 10.4238 0.830059 10.0301 0.865976Z" fill="white"/>
</svg>
